<svg width="172" height="32" viewBox="0 0 172 32" fill="none" xmlns="http://www.w3.org/2000/svg">
<path d="M32.0888 18.6222C32.0888 23.1259 30.6453 26.4889 27.7583 28.7111C24.8713 30.9037 21.0172 32 16.1959 32C12.7316 32 9.77242 31.437 7.31849 30.3111C4.89343 29.1556 3.0602 27.7037 1.8188 25.9556C0.606266 24.2074 0 22.4444 0 20.6667C0 20.4 0.0866094 20.1778 0.259828 20C0.461917 19.7926 0.692875 19.6889 0.952703 19.6889H10.7396C10.9994 19.6889 11.2159 19.7778 11.3891 19.9556C11.5912 20.1333 11.7356 20.3704 11.8222 20.6667C12.3707 22.4444 13.7565 23.3333 15.9794 23.3333C17.3363 23.3333 18.4045 23.0074 19.184 22.3556C19.9923 21.7037 20.3965 20.7704 20.3965 19.5556V9.55556H4.5903C4.27273 9.55556 3.99847 9.43704 3.76751 9.2C3.53655 8.96296 3.42107 8.68148 3.42107 8.35556V1.64444C3.42107 1.31852 3.53655 1.03704 3.76751 0.8C3.99847 0.562963 4.27273 0.444444 4.5903 0.444444H30.9195C31.2371 0.444444 31.5114 0.562963 31.7423 0.8C31.9733 1.03704 32.0888 1.31852 32.0888 1.64444V18.6222Z" fill="white"/>
<path d="M51.8621 32C47.012 32 43.1578 30.9185 40.2997 28.7556C37.4705 26.5926 36.0559 23.2148 36.0559 18.6222V1.64444C36.0559 1.31852 36.1714 1.03704 36.4023 0.8C36.6333 0.562963 36.9075 0.444444 37.2251 0.444444H46.2758C46.5933 0.444444 46.8676 0.562963 47.0986 0.8C47.3295 1.03704 47.445 1.31852 47.445 1.64444V19.3333C47.445 20.5481 47.8348 21.4815 48.6142 22.1333C49.4226 22.7852 50.5052 23.1111 51.8621 23.1111C53.219 23.1111 54.2871 22.7852 55.0666 22.1333C55.875 21.4815 56.2792 20.5481 56.2792 19.3333V1.64444C56.2792 1.31852 56.3946 1.03704 56.6256 0.8C56.8566 0.562963 57.1308 0.444444 57.4484 0.444444H66.4991C66.8166 0.444444 67.0909 0.562963 67.3219 0.8C67.5528 1.03704 67.6683 1.31852 67.6683 1.64444V18.6222C67.6683 23.2148 66.2392 26.5926 63.3811 28.7556C60.5519 30.9185 56.7122 32 51.8621 32Z" fill="white"/>
<path d="M100.043 0.444444C100.361 0.444444 100.635 0.562963 100.866 0.8C101.097 1.03704 101.213 1.31852 101.213 1.64444V30.3556C101.213 30.6815 101.097 30.963 100.866 31.2C100.635 31.437 100.361 31.5556 100.043 31.5556H93.0712C92.3783 31.5556 91.8009 31.2444 91.339 30.6222L81.8986 18.2667V30.3556C81.8986 30.6815 81.7831 30.963 81.5522 31.2C81.3212 31.437 81.047 31.5556 80.7294 31.5556H72.6747C72.3571 31.5556 72.0829 31.437 71.8519 31.2C71.621 30.963 71.5055 30.6815 71.5055 30.3556V1.64444C71.5055 1.31852 71.621 1.03704 71.8519 0.8C72.0829 0.562963 72.3571 0.444444 72.6747 0.444444H79.6901C80.3829 0.444444 80.9459 0.740741 81.379 1.33333L90.8194 14.7111V1.64444C90.8194 1.31852 90.9349 1.03704 91.1658 0.8C91.3968 0.562963 91.671 0.444444 91.9886 0.444444H100.043Z" fill="white"/>
<path d="M137.225 18.7111C137.225 23.2444 135.753 26.5926 132.808 28.7556C129.892 30.9185 125.995 32 121.116 32C116.237 32 112.325 30.9185 109.38 28.7556C106.464 26.5926 105.006 23.2148 105.006 18.6222V13.3778C105.006 10.3556 105.699 7.85185 107.085 5.86667C108.5 3.85185 110.419 2.37037 112.845 1.42222C115.27 0.474074 118.027 0 121.116 0C124.205 0 126.947 0.474074 129.344 1.42222C131.769 2.37037 133.689 3.83704 135.103 5.82222C136.518 7.80741 137.225 10.2963 137.225 13.2889V18.7111ZM116.699 19.5556C116.699 20.7704 117.088 21.7037 117.868 22.3556C118.676 23.0074 119.759 23.3333 121.116 23.3333C122.473 23.3333 123.541 23.0074 124.32 22.3556C125.129 21.6741 125.533 20.7259 125.533 19.5111V12.4889C125.533 11.2741 125.129 10.3407 124.32 9.68889C123.541 9.00741 122.473 8.66667 121.116 8.66667C119.759 8.66667 118.676 8.99259 117.868 9.64444C117.088 10.2963 116.699 11.2296 116.699 12.4444V19.5556Z" fill="white"/>
<path d="M171.852 18.7111C171.852 23.2444 170.38 26.5926 167.435 28.7556C164.519 30.9185 160.622 32 155.743 32C150.864 32 146.952 30.9185 144.007 28.7556C141.091 26.5926 139.633 23.2148 139.633 18.6222V13.3778C139.633 10.3556 140.326 7.85185 141.712 5.86667C143.126 3.85185 145.046 2.37037 147.471 1.42222C149.896 0.474074 152.653 0 155.743 0C158.832 0 161.574 0.474074 163.97 1.42222C166.396 2.37037 168.315 3.83704 169.73 5.82222C171.145 7.80741 171.852 10.2963 171.852 13.2889V18.7111ZM151.325 19.5556C151.325 20.7704 151.715 21.7037 152.495 22.3556C153.303 23.0074 154.386 23.3333 155.743 23.3333C157.099 23.3333 158.168 23.0074 158.947 22.3556C159.755 21.6741 160.16 20.7259 160.16 19.5111V12.4889C160.16 11.2741 159.755 10.3407 158.947 9.68889C158.168 9.00741 157.099 8.66667 155.743 8.66667C154.386 8.66667 153.303 8.99259 152.495 9.64444C151.715 10.2963 151.325 11.2296 151.325 12.4444V19.5556Z" fill="white"/>
</svg>
